<?xml version="1.0" encoding="utf-8"?>
<!-- Generator: Adobe Illustrator 26.4.1, SVG Export Plug-In . SVG Version: 6.00 Build 0)  -->
<svg version="1.1" id="Layer_1" xmlns="http://www.w3.org/2000/svg" xmlns:xlink="http://www.w3.org/1999/xlink" x="0px" y="0px"
	 viewBox="0 0 30 30" style="enable-background:new 0 0 30 30;" xml:space="preserve">
<style type="text/css">
	.st0{fill:#231F20;}
</style>
<g>
	<path class="st0" d="M15,18.4h-4.1L10.1,21c0,0.1-0.1,0.2-0.2,0.2H7.8c-0.1,0-0.2-0.1-0.1-0.2l3.5-10.2c0-0.1,0.1-0.2,0.1-0.4
		c0-0.2,0.1-0.5,0.1-0.7c0-0.1,0-0.1,0.1-0.1h2.8c0.1,0,0.1,0,0.1,0.1l4,11.3c0,0.1,0,0.2-0.1,0.2h-2.3c-0.1,0-0.2,0-0.2-0.1
		L15,18.4z M11.6,16.2h2.8c-0.1-0.2-0.2-0.5-0.3-0.8c-0.1-0.3-0.2-0.6-0.3-0.9c-0.1-0.3-0.2-0.7-0.3-1s-0.2-0.7-0.3-1
		c-0.1-0.3-0.2-0.6-0.2-0.9h0c-0.1,0.5-0.2,0.9-0.4,1.4c-0.2,0.5-0.3,1.1-0.5,1.6C11.9,15.2,11.7,15.8,11.6,16.2L11.6,16.2z
		 M20.9,11.5c-0.4,0-0.7-0.1-1-0.4c-0.3-0.3-0.4-0.6-0.4-1c0-0.4,0.1-0.7,0.4-1c0.3-0.3,0.6-0.4,1-0.4c0.4,0,0.8,0.1,1,0.4
		c0.2,0.3,0.4,0.6,0.4,1c0,0.4-0.1,0.7-0.4,1C21.7,11.4,21.3,11.5,20.9,11.5L20.9,11.5z M19.7,21.1v-8.4c0-0.1,0-0.2,0.1-0.2H22
		c0.1,0,0.1,0.1,0.1,0.2v8.4c0,0.1,0,0.2-0.1,0.2h-2.2C19.8,21.2,19.7,21.2,19.7,21.1z"/>
</g>
</svg>
