<?xml version="1.0" encoding="utf-8"?>
<!-- Generator: Adobe Illustrator 26.4.1, SVG Export Plug-In . SVG Version: 6.00 Build 0)  -->
<svg version="1.1" id="Layer_1" xmlns="http://www.w3.org/2000/svg" xmlns:xlink="http://www.w3.org/1999/xlink" x="0px" y="0px"
	 viewBox="0 0 30 30" style="enable-background:new 0 0 30 30;" xml:space="preserve">
<style type="text/css">
	.st0{fill:none;}
	.st1{fill:#1ABCFE;}
	.st2{fill:#0ACF83;}
	.st3{fill:#FF7262;}
	.st4{fill:#F24E1E;}
	.st5{fill:#A259FF;}
</style>
<g>
	<path class="st0" d="M11,9h8v12h-8V9z"/>
	<path class="st1" d="M15,15c0-1.1,0.9-2,2-2c1.1,0,2,0.9,2,2c0,1.1-0.9,2-2,2C15.9,17,15,16.1,15,15L15,15z"/>
	<path class="st2" d="M11,19c0-1.1,0.9-2,2-2h2v2c0,1.1-0.9,2-2,2S11,20.1,11,19L11,19z"/>
	<path class="st3" d="M15,9v4h2c1.1,0,2-0.9,2-2c0-1.1-0.9-2-2-2L15,9L15,9z"/>
	<path class="st4" d="M11,11c0,1.1,0.9,2,2,2h2V9h-2C11.9,9,11,9.9,11,11z"/>
	<path class="st5" d="M11,15c0,1.1,0.9,2,2,2h2v-4h-2C11.9,13,11,13.9,11,15z"/>
</g>
</svg>
