<?xml version="1.0" encoding="utf-8"?>
<!-- Generator: Adobe Illustrator 26.4.1, SVG Export Plug-In . SVG Version: 6.00 Build 0)  -->
<svg version="1.1" id="Layer_1" xmlns="http://www.w3.org/2000/svg" xmlns:xlink="http://www.w3.org/1999/xlink" x="0px" y="0px"
	 viewBox="0 0 30 30" style="enable-background:new 0 0 30 30;" xml:space="preserve">
<style type="text/css">
	.st0{fill:#231F20;}
</style>
<g>
	<path class="st0" d="M7.6,20.8V9.2c0-0.1,0-0.1,0.1-0.1C8.8,9.1,10,9,11.1,9c1.8,0,3.8,0.6,4.5,2.6c0.2,0.5,0.2,1,0.2,1.5
		c0,1-0.2,1.8-0.6,2.4c-1.2,1.8-3.3,1.7-5.2,1.7v3.6c0,0.1-0.1,0.2-0.2,0.2H7.7C7.7,21,7.6,20.9,7.6,20.8z M10,11.2V15
		c0.7,0.1,1.5,0.1,2.2-0.2c0.8-0.2,1.2-0.9,1.2-1.8c0-0.7-0.4-1.4-1-1.6C11.7,11.2,10.7,11.1,10,11.2z"/>
	<path class="st0" d="M17.2,12h1.9c0.1,0,0.2,0.1,0.2,0.2c0.1,0.3,0.2,0.7,0.2,1.1c0.3-0.4,0.7-0.7,1.2-1c0.5-0.3,1-0.4,1.5-0.4
		c0.1,0,0.2,0.1,0.2,0.2v2.2c0,0.1-0.1,0.1-0.2,0.1c-0.8-0.1-2.1,0.1-2.6,0.8v5.7c0,0.1,0,0.2-0.1,0.2h-2c-0.1,0-0.2-0.1-0.2-0.2
		v-6.2c0-0.8,0-1.7-0.1-2.5C17.1,12,17.2,11.9,17.2,12z"/>
</g>
</svg>
