<?xml version="1.0" encoding="utf-8"?>
<!-- Generator: Adobe Illustrator 26.4.1, SVG Export Plug-In . SVG Version: 6.00 Build 0)  -->
<svg version="1.1" id="Layer_1" xmlns="http://www.w3.org/2000/svg" xmlns:xlink="http://www.w3.org/1999/xlink" x="0px" y="0px"
	 viewBox="0 0 30 30" style="enable-background:new 0 0 30 30;" xml:space="preserve">
<style type="text/css">
	.st0{fill:#231F20;}
</style>
<g>
	<g>
		<path class="st0" d="M20.4,15.6c-1.1-0.4-1.4-0.6-1.4-1c0-0.5,0.4-0.7,1-0.7c0.8,0,1.5,0.3,1.9,0.5l0.5-1.9
			c-0.5-0.3-1.5-0.5-2.5-0.5c-2.2,0-3.6,1.3-3.6,2.9c0,1,0.7,2,2.5,2.7c1,0.3,1.3,0.6,1.3,1c0,0.5-0.3,0.7-1.2,0.7
			c-0.8,0-1.9-0.4-2.4-0.7l-0.5,2c0.7,0.4,1.7,0.6,2.9,0.6c2.5,0,3.8-1.2,3.8-2.9C22.8,17.1,22.1,16.2,20.4,15.6z M14.7,9.7
			c-0.8-0.7-2-1-3.7-1C9.3,8.8,8.1,8.9,7.2,9v12h2.7v-4.4c0.3,0,0.6,0.1,0.9,0.1c1.6,0,3-0.4,4-1.3c0.7-0.7,1.1-1.7,1.1-2.9
			S15.4,10.4,14.7,9.7z M10.9,14.6c-0.4,0-0.7,0-0.9-0.1V11c0.2-0.1,0.6-0.1,1.1-0.1c1.4,0,2.2,0.7,2.2,1.8
			C13.2,13.9,12.3,14.6,10.9,14.6z"/>
	</g>
</g>
</svg>
