<?xml version="1.0" encoding="utf-8"?>
<!-- Generator: Adobe Illustrator 26.4.1, SVG Export Plug-In . SVG Version: 6.00 Build 0)  -->
<svg version="1.1" id="Layer_1" xmlns="http://www.w3.org/2000/svg" xmlns:xlink="http://www.w3.org/1999/xlink" x="0px" y="0px"
	 viewBox="0 0 30 30" style="enable-background:new 0 0 30 30;" xml:space="preserve">
<style type="text/css">
	.st0{fill:#231F20;}
</style>
<g>
	<path class="st0" d="M15,9c-3.1,0-2.9,1.3-2.9,1.3l0,1.4H15v0.4h-4.1c0,0-2-0.2-2,2.9c0,3.1,1.7,3,1.7,3h1v-1.4
		c0,0-0.1-1.7,1.7-1.7h2.9c0,0,1.6,0,1.6-1.6v-2.6C17.9,10.6,18.2,9,15,9z M13.3,9.9c0.3,0,0.5,0.2,0.5,0.5c0,0,0,0,0,0
		c0,0.3-0.2,0.5-0.5,0.5c0,0,0,0,0,0c-0.3,0-0.5-0.2-0.5-0.5c0,0,0,0,0,0C12.8,10.2,13.1,9.9,13.3,9.9C13.3,9.9,13.3,9.9,13.3,9.9z"
		/>
	<path class="st0" d="M15,21c3.1,0,2.9-1.3,2.9-1.3l0-1.4H15v-0.4h4.1c0,0,2,0.2,2-2.9c0-3.1-1.7-3-1.7-3h-1v1.4
		c0,0,0.1,1.7-1.7,1.7h-2.9c0,0-1.6,0-1.6,1.6v2.6C12.1,19.4,11.8,21,15,21L15,21z M16.7,20.1c-0.3,0-0.5-0.2-0.5-0.5c0,0,0,0,0,0
		c0-0.3,0.2-0.5,0.5-0.5c0,0,0,0,0,0c0.3,0,0.5,0.2,0.5,0.5c0,0,0,0,0,0C17.2,19.8,16.9,20.1,16.7,20.1
		C16.7,20.1,16.7,20.1,16.7,20.1L16.7,20.1z"/>
</g>
</svg>
