<?xml version="1.0" encoding="utf-8"?>
<!-- Generator: Adobe Illustrator 26.4.1, SVG Export Plug-In . SVG Version: 6.00 Build 0)  -->
<svg version="1.1" id="Layer_1" xmlns="http://www.w3.org/2000/svg" xmlns:xlink="http://www.w3.org/1999/xlink" x="0px" y="0px"
	 viewBox="0 0 30 30" style="enable-background:new 0 0 30 30;" xml:space="preserve">
<style type="text/css">
	.st0{fill:#231F20;}
</style>
<g>
	<path class="st0" d="M20.8,9c-0.2,0-0.4,0-0.7,0c-0.5,0-1,0.4-1.4,0.7c-0.4,0.3-0.7,0.7-1,1.1c-0.1-0.3-0.2-0.6-0.4-0.8
		c-0.2-0.4-0.6-0.7-1-0.8c-0.2,0-0.5,0-0.7,0c-0.2,0-0.7,0-0.7,0s-0.5,0-0.7,0c-0.2,0-0.5,0-0.7,0c-0.4,0.1-0.8,0.4-1,0.8
		c-0.1,0.3-0.3,0.6-0.4,0.8c-0.3-0.4-0.6-0.8-1-1.1C10.9,9.4,10.4,9,9.9,9C9.6,9,9.4,9,9.2,9c-0.3,0-0.6,0-1,0C8,9,7.5,8.9,7.6,9.3
		c0,0.1,0.1,0.2,0.2,0.3C7.9,9.7,7.9,9.7,8,9.8c0.1,0.1,0.2,0.3,0.3,0.5c0.2,0.4,0.4,0.8,0.6,1.1c0.5,0.8,0.9,1.6,1.5,2.3
		c0.4,0.5,1,1.1,1.6,1.4c-0.5,0.9-1,1.8-1.5,2.7c-0.4,0.8-0.9,1.6-1.3,2.4c0,0,0,0.1-0.1,0.1C9.1,20.5,9,20.6,9,20.7
		C9,21,9.4,21,9.6,21c0.2,0,0.4,0,0.6,0c0.3,0,0.7,0,1,0c0.2,0,0.4,0,0.6,0c0.5,0,1-0.3,1.3-0.7c0.1-0.1,1-1.6,1.4-2.2
		c0.1-0.2,0.6-0.9,0.6-0.9s0.4,0.7,0.6,0.9c0.4,0.6,1.3,2.1,1.4,2.2c0.3,0.4,0.8,0.7,1.3,0.7c0.2,0,0.4,0,0.6,0c0.3,0,0.7,0,1,0
		c0.2,0,0.4,0,0.6,0c0.2,0,0.6,0,0.6-0.3c0-0.1-0.1-0.3-0.1-0.4c0,0,0-0.1-0.1-0.1c-0.4-0.8-0.9-1.6-1.3-2.4C19,17,18.5,16,18,15.1
		c0.7-0.3,1.2-0.8,1.6-1.4c0.6-0.7,1.1-1.5,1.5-2.3c0.2-0.4,0.4-0.8,0.6-1.1c0.1-0.2,0.2-0.3,0.3-0.5c0.1-0.1,0.1-0.2,0.2-0.3
		c0.1-0.1,0.2-0.2,0.2-0.3C22.5,8.9,22,9,21.8,9C21.4,9,21.1,9,20.8,9L20.8,9z"/>
</g>
</svg>
