<?xml version="1.0" encoding="utf-8"?>
<!-- Generator: Adobe Illustrator 26.4.1, SVG Export Plug-In . SVG Version: 6.00 Build 0)  -->
<svg version="1.1" id="Layer_1" xmlns="http://www.w3.org/2000/svg" xmlns:xlink="http://www.w3.org/1999/xlink" x="0px" y="0px"
	 viewBox="0 0 379.71 349.11" style="enable-background:new 0 0 379.71 349.11;" xml:space="preserve">
<g>
	<path d="M144.41,328.01c1.56-9.16,3.19-18.75,4.82-28.35c0.15-0.86,0.16-1.78,0.48-2.57c3.07-7.68-0.03-12.87-5.94-17.89
		c-7.22-6.12-13.67-13.15-20.48-19.76c-2.22-2.16-4.25-4.33-3.07-7.8c1.15-3.36,3.84-4.11,7.02-4.55
		c11.98-1.64,23.94-3.37,35.87-5.34c1.62-0.27,3.61-1.74,4.36-3.2c5.59-10.87,10.93-21.88,16.28-32.87
		c1.33-2.74,2.93-4.97,6.33-4.96c3.4,0,5,2.23,6.34,4.96c5.31,10.87,10.78,21.68,15.98,32.6c1.12,2.35,2.59,3.3,5.03,3.64
		c12.1,1.68,24.17,3.52,36.27,5.21c2.96,0.41,5.25,1.51,6.26,4.5c1.04,3.09-0.49,5.26-2.56,7.28c-8.68,8.45-17.27,16.99-26.06,25.32
		c-2.1,1.99-2.49,3.85-1.99,6.58c2.19,11.91,4.15,23.86,6.21,35.79c0.48,2.75,0.19,5.29-2.18,7.11c-2.51,1.93-5.06,1.49-7.7,0.09
		c-10.68-5.67-21.45-11.17-32.04-16.99c-2.67-1.46-4.61-1.33-7.19,0.07c-10.73,5.84-21.55,11.51-32.4,17.12
		C149.06,336.62,144.31,333.78,144.41,328.01z M239.17,257.61c-9.02-1.34-18.73-2.92-28.47-4.17c-3.66-0.47-5.83-2.2-7.33-5.45
		c-2.56-5.54-5.35-10.98-8.06-16.46c-1.63-3.3-3.28-6.59-5.19-10.43c-0.95,1.75-1.62,2.9-2.2,4.08c-3.8,7.72-7.62,15.42-11.35,23.17
		c-1.42,2.95-3.45,4.7-6.82,5.01c-3.47,0.32-6.91,0.95-10.35,1.47c-6.42,0.97-12.85,1.95-18.69,2.84c5.33,5.69,10.1,11.93,16,16.81
		c6.69,5.52,8.37,11.43,6.16,19.65c-1.98,7.37-2.69,15.08-4.07,23.25c1.73-0.84,2.84-1.34,3.91-1.9
		c7.72-4.04,15.48-8.02,23.14-12.18c2.93-1.6,5.59-1.72,8.44,0.01c1.7,1.03,3.53,1.85,5.29,2.78c7.03,3.68,14.05,7.36,21.48,11.26
		c-0.09-1.25-0.09-1.97-0.21-2.67c-1.44-8.49-2.73-17-4.41-25.44c-0.92-4.62,0.12-7.95,3.6-11.33
		C226.74,271.39,232.88,264.34,239.17,257.61z"/>
	<path d="M191.55,103.38c10.75,0.96,23.06,1.17,35.04,3.3c23.4,4.17,37.09,19.42,42.62,41.92c2.28,9.26,2.53,19.02,3.72,28.54
		c1.89,15.11,3.79,30.23,5.68,45.34c0.57,4.56-1.33,7.7-4.95,8.26c-3.78,0.58-6.68-2.07-7.23-6.75c-2.74-22.93-5.36-45.88-8.21-68.8
		c-2.6-20.91-17.11-34.62-37.92-37.08c-21.31-2.53-42.53-2.18-63.79,0.22c-17.43,1.97-31.12,14.13-35.14,32.54
		c-1.85,8.48-2.14,17.31-3.13,25.98c-1.83,15.88-3.6,31.76-5.51,47.63c-0.55,4.6-3.31,6.86-7.15,6.36
		c-3.72-0.48-5.64-3.57-5.14-8.13c2.45-22.47,4.83-44.94,7.32-67.4c3.09-27.88,22.09-47.52,50.98-49.66
		C169.17,104.88,179.62,104.2,191.55,103.38z"/>
	<path d="M33.65,327.76c1.34-7.82,2.6-16.22,4.29-24.53c0.78-3.81,0.15-6.41-2.89-9.09c-5.89-5.19-11.31-10.91-16.96-16.38
		c-2.08-2.02-3.6-4.17-2.6-7.26c1.04-3.2,3.5-4.16,6.58-4.58c8.64-1.15,17.27-2.38,25.86-3.85c1.38-0.24,3.02-1.63,3.69-2.93
		c3.91-7.52,7.62-15.15,11.31-22.78c1.38-2.85,3.01-5.27,6.57-5.2c3.35,0.06,4.95,2.31,6.27,5.07c3.67,7.64,7.53,15.19,11.19,22.84
		c0.96,2.01,2.19,2.94,4.47,3.23c8.77,1.11,17.55,2.26,26.23,3.89c2.07,0.39,4.78,2.36,5.39,4.2c0.62,1.85-0.33,5.1-1.76,6.63
		c-6.15,6.54-12.82,12.58-19.09,19.02c-1.06,1.09-1.71,3.27-1.49,4.8c1.28,8.76,3.09,17.45,4.23,26.23c0.27,2.11-0.78,4.9-2.19,6.58
		c-1.87,2.24-4.72,1.68-7.23,0.35c-7.7-4.08-15.46-8.07-23.1-12.27c-2.11-1.16-3.76-1.15-5.86-0.01
		c-7.76,4.23-15.58,8.37-23.46,12.38C38.13,336.63,33.45,333.69,33.65,327.76z M69.41,251.35c-2.71,5.49-5.38,10.17-7.35,15.13
		c-2.06,5.19-5.51,7.48-10.99,7.85c-5.25,0.36-10.44,1.44-15.76,2.22c4.6,4.75,8.84,9.28,13.26,13.63c2.45,2.41,3.33,4.95,2.62,8.41
		c-1.24,6.03-2.08,12.13-3.21,18.95c5.89-3.08,11.17-5.57,16.16-8.55c3.79-2.26,7.13-2.27,10.78,0.11c2.18,1.42,4.6,2.48,6.92,3.68
		c2.78,1.44,5.57,2.86,9.01,4.62c-0.82-4.89-1.09-9.05-2.26-12.95c-2.25-7.55-0.85-13.46,5.71-18.31c3.47-2.57,6.18-6.15,9.55-9.59
		c-6.47-0.93-12.36-1.91-18.3-2.58c-3.88-0.44-6.29-2.27-7.9-5.84C75.22,262.7,72.42,257.43,69.41,251.35z"/>
	<path d="M310.62,229.65c2.53,2.39,4.88,3.75,5.96,5.78c4.17,7.8,7.85,15.87,11.96,23.7c0.71,1.36,2.55,2.72,4.05,2.98
		c8.71,1.49,17.48,2.65,26.23,3.9c2.81,0.4,5.46,1.58,5.68,4.5c0.17,2.18-0.55,5.09-1.99,6.62c-5.98,6.35-12.33,12.36-18.67,18.37
		c-1.7,1.61-2.38,3.08-1.91,5.5c1.58,8.2,2.85,16.47,4.31,24.7c0.54,3.09,0.73,6.04-2.14,8.15c-2.87,2.11-5.62,1.06-8.38-0.43
		c-7.35-3.95-14.77-7.77-22.1-11.76c-1.94-1.06-3.51-1.14-5.52-0.05c-7.54,4.12-15.21,8-22.78,12.06c-2.72,1.46-5.36,2.16-8.01,0.09
		c-2.46-1.93-2.64-4.48-2.09-7.43c1.54-8.34,2.78-16.74,4.34-25.07c0.44-2.34,0.09-3.9-1.7-5.58c-6.17-5.82-12.12-11.87-18.25-17.73
		c-2.24-2.14-3.74-4.46-2.72-7.6c1.02-3.15,3.63-4.03,6.7-4.44c8.39-1.1,16.75-2.52,25.14-3.6c2.27-0.29,3.51-1.22,4.48-3.23
		c3.76-7.88,7.52-15.76,11.61-23.46C305.91,233.55,308.16,232.11,310.62,229.65z M310.76,251.35c-2.78,5.63-5.52,10.52-7.63,15.67
		c-1.96,4.79-5.24,6.81-10.21,7.25c-5.42,0.47-10.79,1.48-16.01,2.22c4.07,4.33,7.86,8.79,12.12,12.73
		c3.35,3.09,4.24,6.38,3.32,10.71c-1.18,5.56-1.95,11.22-3.03,17.58c5.44-2.85,10.32-5.07,14.83-7.86
		c4.55-2.81,8.59-2.92,13.18-0.07c4.58,2.84,9.54,5.09,14.9,7.9c-1.09-6.51-1.76-12.34-3.11-18.01c-1.05-4.4,0.35-7.33,3.45-10.25
		c4.21-3.98,8.08-8.34,12.22-12.67c-6.32-0.95-12.57-1.98-18.85-2.78c-3.19-0.41-5.16-2-6.51-4.85
		C316.76,263.28,313.92,257.73,310.76,251.35z"/>
	<path d="M189.49,13.96c20.49,0.05,36.71,12.14,41.3,30.81c5.69,23.13-10.97,51.57-33.48,57.17c-9.49,2.36-18.48,0.84-26.5-4.47
		c-16.07-10.66-24.33-25.98-23.9-45.24C147.41,30.1,165.89,13.9,189.49,13.96z M219.6,54.07c-0.23-1.85-0.3-4.12-0.81-6.29
		c-3.18-13.72-16.18-22.56-31.37-21.44c-15.06,1.11-25.95,10.08-27.94,22.98c-2.13,13.87,6.15,31.08,18.34,38
		c7.56,4.3,15.26,4.46,22.7-0.06C212.75,79.84,218.81,68.68,219.6,54.07z"/>
	<path d="M151.25,163.15c-1.48,21.57-2.76,40.27-4.06,58.97c-0.09,1.25-0.2,2.5-0.46,3.72c-0.67,3.24-3.26,5.2-6.47,4.96
		c-3.14-0.23-5.38-2.6-5.59-5.94c-0.05-0.75-0.01-1.5,0.04-2.25c1.35-19.32,2.66-38.64,4.08-57.96c0.42-5.63,2.92-8.37,6.8-8.01
		C149.65,157.02,151.4,160,151.25,163.15z"/>
	<path d="M227.49,166.77c-0.06-1-0.15-1.99-0.17-2.99c-0.09-4.22,2.27-7.09,5.88-7.2c3.4-0.1,6.01,2.53,6.33,6.49
		c0.45,5.6,0.88,11.2,1.28,16.8c1.02,14.32,2.03,28.63,3.01,42.95c0.36,5.26-2.45,8.49-6.86,7.99c-3.26-0.37-5.24-2.7-5.54-6.89
		c-1.09-15.19-2.11-30.38-3.16-45.57c-0.27-3.86-0.55-7.72-0.82-11.58C227.46,166.77,227.48,166.77,227.49,166.77z"/>
</g>
</svg>
